<svg xmlns="http://www.w3.org/2000/svg" width="674" height="553.001" viewBox="0 0 674 553.001">
  <path id="Subtração_16" data-name="Subtração 16" d="M383.008,559H-254.006a18.4,18.4,0,0,0-5.577-12.745A18.406,18.406,0,0,0-272.5,541c-.143,0-.3,0-.5.006V24.994c.179,0,.337.006.5.006A18.521,18.521,0,0,0-254,6.5c0-.153,0-.321-.007-.5h9.019A10.481,10.481,0,0,0-234.5,16,10.481,10.481,0,0,0-224.012,6h16.024A10.481,10.481,0,0,0-197.5,16,10.481,10.481,0,0,0-187.012,6h16.024A10.481,10.481,0,0,0-160.5,16,10.481,10.481,0,0,0-150.011,6h16.023A10.481,10.481,0,0,0-123.5,16,10.481,10.481,0,0,0-113.011,6h16.023A10.481,10.481,0,0,0-86.5,16,10.481,10.481,0,0,0-76.011,6h16.024A10.48,10.48,0,0,0-49.5,16,10.481,10.481,0,0,0-39.011,6h16.024A10.48,10.48,0,0,0-12.5,16,10.481,10.481,0,0,0-2.012,6H14.012A10.5,10.5,0,0,0,34.988,6H51.012A10.5,10.5,0,0,0,71.988,6H88.012a10.5,10.5,0,0,0,20.975,0h16.024a10.5,10.5,0,0,0,20.976,0h16.024a10.5,10.5,0,0,0,20.976,0h16.024a10.5,10.5,0,0,0,20.977,0h16.023a10.5,10.5,0,0,0,20.977,0h16.024a10.5,10.5,0,0,0,20.976,0h16.024a10.5,10.5,0,0,0,20.975,0h16.024a10.5,10.5,0,0,0,20.976,0h15.018c0,.183-.006.342-.006.5a18.5,18.5,0,0,0,18,18.494V541.006A18.488,18.488,0,0,0,383.008,559Z" transform="translate(273 -5.999)" fill="#8e7b7b"/>
</svg>