<svg xmlns="http://www.w3.org/2000/svg" width="674" height="131.001" viewBox="0 0 674 131.001">
  <path id="Subtração_19" data-name="Subtração 19" d="M-244.988,126h-9.018a18.4,18.4,0,0,0-5.577-12.745A18.406,18.406,0,0,0-272.5,108c-.148,0-.307,0-.5.006V13.994c.139,0,.3.006.5.006A18.521,18.521,0,0,0-254-4.5c0-.153,0-.321-.007-.5H383.007c0,.183-.006.342-.006.5a18.4,18.4,0,0,0,5.255,12.917A18.4,18.4,0,0,0,401,13.994v94.012A18.488,18.488,0,0,0,383.008,126H367.988c.007-.162.012-.329.012-.5a10.5,10.5,0,1,0-21,0c0,.164,0,.332.012.5H330.988c.007-.157.012-.324.012-.5a10.5,10.5,0,1,0-21,0c0,.167,0,.335.012.5H293.989c.007-.157.012-.325.012-.5a10.5,10.5,0,1,0-21,0c0,.163,0,.331.012.5H256.989c.007-.16.012-.327.012-.5a10.5,10.5,0,0,0-21,0c0,.166,0,.333.012.5H219.989c.007-.159.012-.327.012-.5a10.5,10.5,0,0,0-21,0c0,.166,0,.334.012.5H182.988c.007-.159.012-.326.012-.5a10.5,10.5,0,1,0-21,0c0,.166,0,.334.012.5H145.988c.007-.159.012-.326.012-.5a10.5,10.5,0,1,0-21,0c0,.166,0,.334.012.5H108.987c.007-.16.012-.327.012-.5a10.5,10.5,0,1,0-21,0c0,.166,0,.334.012.5H71.988c.007-.16.012-.327.012-.5a10.5,10.5,0,1,0-21,0c0,.165,0,.333.012.5H34.988c.007-.16.012-.327.012-.5a10.5,10.5,0,1,0-21,0c0,.165,0,.333.012.5H-2.011c.007-.159.012-.326.012-.5A10.512,10.512,0,0,0-12.5,115,10.512,10.512,0,0,0-23,125.5c0,.166,0,.334.012.5H-39.011c.007-.159.012-.326.012-.5A10.512,10.512,0,0,0-49.5,115,10.512,10.512,0,0,0-60,125.5c0,.166,0,.334.012.5H-76.011c.007-.16.012-.328.012-.5A10.512,10.512,0,0,0-86.5,115,10.512,10.512,0,0,0-97,125.5c0,.166,0,.334.012.5h-16.023c.007-.159.012-.326.012-.5A10.512,10.512,0,0,0-123.5,115,10.512,10.512,0,0,0-134,125.5c0,.167,0,.335.012.5h-16.023c.008-.161.012-.328.012-.5A10.512,10.512,0,0,0-160.5,115,10.512,10.512,0,0,0-171,125.5c0,.167,0,.336.012.5h-16.024c.007-.157.012-.325.012-.5A10.512,10.512,0,0,0-197.5,115,10.512,10.512,0,0,0-208,125.5c0,.165,0,.333.012.5h-16.024c.007-.16.012-.328.012-.5A10.512,10.512,0,0,0-234.5,115,10.512,10.512,0,0,0-245,125.5c0,.167,0,.336.012.5Z" transform="translate(273 5)" fill="#ded9d9"/>
</svg>