<svg xmlns="http://www.w3.org/2000/svg" width="342" height="282.001" viewBox="0 0 342 282.001">
  <path id="Subtração_6" data-name="Subtração 6" d="M69.007,295H-236.006A18.4,18.4,0,0,0-254.5,277c-.162,0-.33,0-.5.007V31.994c.158,0,.326.007.5.007A18.521,18.521,0,0,0-236,13.5c0-.166,0-.335-.007-.5H69.007c0,.172-.006.335-.006.5A18.4,18.4,0,0,0,87,31.994v9.051a11,11,0,0,0,0,21.91V73a11,11,0,1,0,0,22v4a11,11,0,1,0,0,22v8a11,11,0,1,0,0,22v7a11,11,0,1,0,0,22v7a11,11,0,1,0,0,22v5a11,11,0,1,0,0,22v10a11,11,0,1,0,0,22v9.006A18.489,18.489,0,0,0,69.007,295h0Z" transform="translate(255 -13)" fill="#ded9d9"/>
</svg>