<svg xmlns="http://www.w3.org/2000/svg" width="470" height="282.001" viewBox="0 0 470 282.001">
  <path id="Subtração_13" data-name="Subtração 13" d="M197.007,295H-236.006A18.4,18.4,0,0,0-254.5,277c-.163,0-.331,0-.5.007V268a11.012,11.012,0,0,0,11-11,11.013,11.013,0,0,0-11-11V236a11.012,11.012,0,0,0,11-11,11.012,11.012,0,0,0-11-11v-5a11.012,11.012,0,0,0,11-11,11.012,11.012,0,0,0-11-11v-7a11.012,11.012,0,0,0,11-11,11.012,11.012,0,0,0-11-11v-7a11.012,11.012,0,0,0,11-11,11.013,11.013,0,0,0-11-11v-8a11.012,11.012,0,0,0,11-11,11.012,11.012,0,0,0-11-11V95a11.013,11.013,0,0,0,11-11,11.012,11.012,0,0,0-11-11V62.955c.327.029.663.045,1,.045a11.012,11.012,0,0,0,11-11,11.012,11.012,0,0,0-11-11c-.333,0-.669.015-1,.045V31.994c.156,0,.323.007.5.007A18.521,18.521,0,0,0-236,13.5c0-.165,0-.334-.007-.5H197.007c0,.156-.007.324-.007.5a18.4,18.4,0,0,0,18,18.494V277.007A18.488,18.488,0,0,0,197.007,295Z" transform="translate(255 -13)" fill="#8e7b7b"/>
</svg>